<mxfile host="app.diagrams.net" modified="2023-10-09T12:03:09.865Z" agent="Mozilla/5.0 (X11; Linux x86_64; rv:102.0) Gecko/20100101 Firefox/102.0" etag="2d2oslqnWUn2fW-lifxz" version="22.0.4" type="device">
  <diagram name="Page-1" id="3rK5DHKhRLW5s2AJK6Ox">
    <mxGraphModel dx="989" dy="468" grid="1" gridSize="10" guides="1" tooltips="1" connect="1" arrows="1" fold="1" page="1" pageScale="1" pageWidth="850" pageHeight="1100" math="0" shadow="0">
      <root>
        <mxCell id="0" />
        <mxCell id="1" parent="0" />
        <mxCell id="UJMpHwvXwwzh0vuMlpc5-69" value="" style="verticalLabelPosition=bottom;shadow=0;dashed=0;align=center;html=1;verticalAlign=top;shape=mxgraph.electrical.transistors.pmos;pointerEvents=1;strokeWidth=2;" vertex="1" parent="1">
          <mxGeometry x="460" y="120" width="60" height="100" as="geometry" />
        </mxCell>
        <mxCell id="UJMpHwvXwwzh0vuMlpc5-70" value="" style="verticalLabelPosition=bottom;shadow=0;dashed=0;align=center;html=1;verticalAlign=top;shape=mxgraph.electrical.transistors.pmos;pointerEvents=1;flipH=1;strokeWidth=2;" vertex="1" parent="1">
          <mxGeometry x="260" y="120" width="60" height="100" as="geometry" />
        </mxCell>
        <mxCell id="UJMpHwvXwwzh0vuMlpc5-71" value="" style="verticalLabelPosition=bottom;shadow=0;dashed=0;align=center;html=1;verticalAlign=top;shape=mxgraph.electrical.transistors.nmos;pointerEvents=1;strokeWidth=2;" vertex="1" parent="1">
          <mxGeometry x="460" y="240" width="60" height="100" as="geometry" />
        </mxCell>
        <mxCell id="UJMpHwvXwwzh0vuMlpc5-72" value="" style="verticalLabelPosition=bottom;shadow=0;dashed=0;align=center;html=1;verticalAlign=top;shape=mxgraph.electrical.transistors.nmos;pointerEvents=1;flipH=1;strokeWidth=2;" vertex="1" parent="1">
          <mxGeometry x="260" y="240" width="60" height="100" as="geometry" />
        </mxCell>
        <mxCell id="UJMpHwvXwwzh0vuMlpc5-73" value="" style="verticalLabelPosition=bottom;shadow=0;dashed=0;align=center;html=1;verticalAlign=top;shape=mxgraph.electrical.transistors.nmos;pointerEvents=1;direction=south;strokeWidth=2;" vertex="1" parent="1">
          <mxGeometry x="560" y="170" width="100" height="60" as="geometry" />
        </mxCell>
        <mxCell id="UJMpHwvXwwzh0vuMlpc5-74" value="" style="verticalLabelPosition=bottom;shadow=0;dashed=0;align=center;html=1;verticalAlign=top;shape=mxgraph.electrical.transistors.nmos;pointerEvents=1;direction=south;strokeWidth=2;" vertex="1" parent="1">
          <mxGeometry x="100" y="170" width="100" height="60" as="geometry" />
        </mxCell>
        <mxCell id="UJMpHwvXwwzh0vuMlpc5-75" value="" style="endArrow=none;html=1;rounded=0;entryX=1;entryY=1;entryDx=0;entryDy=0;entryPerimeter=0;exitX=1;exitY=0;exitDx=0;exitDy=0;exitPerimeter=0;strokeWidth=2;" edge="1" parent="1" source="UJMpHwvXwwzh0vuMlpc5-71" target="UJMpHwvXwwzh0vuMlpc5-69">
          <mxGeometry width="50" height="50" relative="1" as="geometry">
            <mxPoint x="410" y="300" as="sourcePoint" />
            <mxPoint x="410" y="220" as="targetPoint" />
          </mxGeometry>
        </mxCell>
        <mxCell id="UJMpHwvXwwzh0vuMlpc5-76" value="" style="endArrow=none;html=1;rounded=0;entryX=1;entryY=1;entryDx=0;entryDy=0;entryPerimeter=0;exitX=1;exitY=0;exitDx=0;exitDy=0;exitPerimeter=0;strokeWidth=2;" edge="1" parent="1" source="UJMpHwvXwwzh0vuMlpc5-72" target="UJMpHwvXwwzh0vuMlpc5-70">
          <mxGeometry width="50" height="50" relative="1" as="geometry">
            <mxPoint x="400" y="390" as="sourcePoint" />
            <mxPoint x="450" y="340" as="targetPoint" />
          </mxGeometry>
        </mxCell>
        <mxCell id="UJMpHwvXwwzh0vuMlpc5-77" value="" style="endArrow=none;html=1;rounded=0;entryX=1;entryY=-0.548;entryDx=0;entryDy=0;entryPerimeter=0;strokeWidth=2;" edge="1" parent="1" target="UJMpHwvXwwzh0vuMlpc5-74">
          <mxGeometry width="50" height="50" relative="1" as="geometry">
            <mxPoint x="260" y="230" as="sourcePoint" />
            <mxPoint x="230" y="240" as="targetPoint" />
          </mxGeometry>
        </mxCell>
        <mxCell id="UJMpHwvXwwzh0vuMlpc5-78" value="" style="endArrow=none;html=1;rounded=0;strokeWidth=2;" edge="1" parent="1">
          <mxGeometry width="50" height="50" relative="1" as="geometry">
            <mxPoint x="570" y="230" as="sourcePoint" />
            <mxPoint x="520" y="230" as="targetPoint" />
          </mxGeometry>
        </mxCell>
        <mxCell id="UJMpHwvXwwzh0vuMlpc5-81" value="" style="endArrow=none;html=1;rounded=0;entryX=1;entryY=0;entryDx=0;entryDy=0;entryPerimeter=0;exitX=1;exitY=0;exitDx=0;exitDy=0;exitPerimeter=0;strokeWidth=2;" edge="1" parent="1" source="UJMpHwvXwwzh0vuMlpc5-70" target="UJMpHwvXwwzh0vuMlpc5-69">
          <mxGeometry width="50" height="50" relative="1" as="geometry">
            <mxPoint x="400" y="130" as="sourcePoint" />
            <mxPoint x="400" y="70" as="targetPoint" />
          </mxGeometry>
        </mxCell>
        <mxCell id="UJMpHwvXwwzh0vuMlpc5-82" value="" style="endArrow=none;html=1;rounded=0;entryX=1;entryY=1;entryDx=0;entryDy=0;entryPerimeter=0;strokeWidth=2;exitX=1;exitY=1;exitDx=0;exitDy=0;exitPerimeter=0;" edge="1" parent="1" source="UJMpHwvXwwzh0vuMlpc5-72" target="UJMpHwvXwwzh0vuMlpc5-71">
          <mxGeometry width="50" height="50" relative="1" as="geometry">
            <mxPoint x="300" y="460" as="sourcePoint" />
            <mxPoint x="450" y="340" as="targetPoint" />
          </mxGeometry>
        </mxCell>
        <mxCell id="UJMpHwvXwwzh0vuMlpc5-85" value="BL" style="text;strokeColor=none;align=center;fillColor=none;html=1;verticalAlign=middle;whiteSpace=wrap;rounded=0;fontStyle=1;fontSize=15;" vertex="1" parent="1">
          <mxGeometry x="60" y="200" width="60" height="30" as="geometry" />
        </mxCell>
        <mxCell id="UJMpHwvXwwzh0vuMlpc5-86" value="BLB" style="text;strokeColor=none;align=center;fillColor=none;html=1;verticalAlign=middle;whiteSpace=wrap;rounded=0;fontStyle=1;fontSize=15;" vertex="1" parent="1">
          <mxGeometry x="650" y="210" width="60" height="30" as="geometry" />
        </mxCell>
        <mxCell id="UJMpHwvXwwzh0vuMlpc5-87" value="WL" style="text;strokeColor=none;align=center;fillColor=none;html=1;verticalAlign=middle;whiteSpace=wrap;rounded=0;fontStyle=1;fontSize=15;" vertex="1" parent="1">
          <mxGeometry x="120" y="150" width="60" height="30" as="geometry" />
        </mxCell>
        <mxCell id="UJMpHwvXwwzh0vuMlpc5-88" value="WL" style="text;strokeColor=none;align=center;fillColor=none;html=1;verticalAlign=middle;whiteSpace=wrap;rounded=0;fontStyle=1;fontSize=15;" vertex="1" parent="1">
          <mxGeometry x="580" y="150" width="60" height="30" as="geometry" />
        </mxCell>
        <mxCell id="UJMpHwvXwwzh0vuMlpc5-89" value="" style="endArrow=none;html=1;rounded=0;strokeWidth=2;" edge="1" parent="1">
          <mxGeometry width="50" height="50" relative="1" as="geometry">
            <mxPoint x="400" y="80" as="sourcePoint" />
            <mxPoint x="400" y="120" as="targetPoint" />
          </mxGeometry>
        </mxCell>
        <mxCell id="UJMpHwvXwwzh0vuMlpc5-90" value="&lt;div&gt;&lt;br&gt;&lt;/div&gt;&lt;div&gt;vdd&lt;br&gt;&lt;/div&gt;" style="text;strokeColor=none;align=center;fillColor=none;html=1;verticalAlign=middle;whiteSpace=wrap;rounded=0;fontStyle=1" vertex="1" parent="1">
          <mxGeometry x="370" y="50" width="60" height="30" as="geometry" />
        </mxCell>
        <mxCell id="UJMpHwvXwwzh0vuMlpc5-91" value="" style="endArrow=none;html=1;rounded=0;fontSize=12;strokeWidth=2;" edge="1" parent="1">
          <mxGeometry width="50" height="50" relative="1" as="geometry">
            <mxPoint x="400" y="340" as="sourcePoint" />
            <mxPoint x="400" y="360" as="targetPoint" />
          </mxGeometry>
        </mxCell>
        <mxCell id="UJMpHwvXwwzh0vuMlpc5-92" value="gnd" style="text;strokeColor=none;align=center;fillColor=none;html=1;verticalAlign=middle;whiteSpace=wrap;rounded=0;strokeWidth=2;fontStyle=1" vertex="1" parent="1">
          <mxGeometry x="370" y="350" width="60" height="30" as="geometry" />
        </mxCell>
        <mxCell id="UJMpHwvXwwzh0vuMlpc5-93" value="node1" style="text;strokeColor=none;align=center;fillColor=none;html=1;verticalAlign=middle;whiteSpace=wrap;rounded=0;fontStyle=1" vertex="1" parent="1">
          <mxGeometry x="210" y="210" width="60" height="20" as="geometry" />
        </mxCell>
        <mxCell id="UJMpHwvXwwzh0vuMlpc5-95" value="node2" style="text;strokeColor=none;align=center;fillColor=none;html=1;verticalAlign=middle;whiteSpace=wrap;rounded=0;fontStyle=1" vertex="1" parent="1">
          <mxGeometry x="510" y="210" width="60" height="20" as="geometry" />
        </mxCell>
        <mxCell id="UJMpHwvXwwzh0vuMlpc5-96" value="" style="pointerEvents=1;verticalLabelPosition=bottom;shadow=0;dashed=0;align=center;html=1;verticalAlign=top;shape=mxgraph.electrical.capacitors.capacitor_2;direction=south;fontSize=13;" vertex="1" parent="1">
          <mxGeometry x="70" y="290" width="30" height="50" as="geometry" />
        </mxCell>
        <mxCell id="UJMpHwvXwwzh0vuMlpc5-97" value="" style="endArrow=none;dashed=1;html=1;rounded=0;entryX=0.75;entryY=1;entryDx=0;entryDy=0;exitX=0;exitY=0.5;exitDx=0;exitDy=0;exitPerimeter=0;" edge="1" parent="1" source="UJMpHwvXwwzh0vuMlpc5-96" target="UJMpHwvXwwzh0vuMlpc5-85">
          <mxGeometry width="50" height="50" relative="1" as="geometry">
            <mxPoint x="400" y="370" as="sourcePoint" />
            <mxPoint x="450" y="320" as="targetPoint" />
            <Array as="points">
              <mxPoint x="85" y="230" />
            </Array>
          </mxGeometry>
        </mxCell>
        <mxCell id="UJMpHwvXwwzh0vuMlpc5-100" value="" style="endArrow=none;dashed=1;html=1;rounded=0;entryX=1;entryY=0.5;entryDx=0;entryDy=0;entryPerimeter=0;exitX=1;exitY=1;exitDx=0;exitDy=0;exitPerimeter=0;" edge="1" parent="1" source="UJMpHwvXwwzh0vuMlpc5-72" target="UJMpHwvXwwzh0vuMlpc5-96">
          <mxGeometry width="50" height="50" relative="1" as="geometry">
            <mxPoint x="400" y="370" as="sourcePoint" />
            <mxPoint x="450" y="320" as="targetPoint" />
          </mxGeometry>
        </mxCell>
        <mxCell id="UJMpHwvXwwzh0vuMlpc5-101" value="" style="pointerEvents=1;verticalLabelPosition=bottom;shadow=0;dashed=0;align=center;html=1;verticalAlign=top;shape=mxgraph.electrical.capacitors.capacitor_2;direction=south;" vertex="1" parent="1">
          <mxGeometry x="660" y="287.14" width="30" height="50" as="geometry" />
        </mxCell>
        <mxCell id="UJMpHwvXwwzh0vuMlpc5-102" value="" style="endArrow=none;dashed=1;html=1;rounded=0;entryX=0.167;entryY=0.667;entryDx=0;entryDy=0;entryPerimeter=0;exitX=0;exitY=0.5;exitDx=0;exitDy=0;exitPerimeter=0;" edge="1" parent="1" source="UJMpHwvXwwzh0vuMlpc5-101" target="UJMpHwvXwwzh0vuMlpc5-86">
          <mxGeometry width="50" height="50" relative="1" as="geometry">
            <mxPoint x="400" y="370" as="sourcePoint" />
            <mxPoint x="450" y="320" as="targetPoint" />
            <Array as="points">
              <mxPoint x="675" y="230" />
            </Array>
          </mxGeometry>
        </mxCell>
        <mxCell id="UJMpHwvXwwzh0vuMlpc5-104" value="" style="endArrow=none;dashed=1;html=1;rounded=0;entryX=1;entryY=1;entryDx=0;entryDy=0;entryPerimeter=0;exitX=1;exitY=0.5;exitDx=0;exitDy=0;exitPerimeter=0;" edge="1" parent="1" source="UJMpHwvXwwzh0vuMlpc5-101" target="UJMpHwvXwwzh0vuMlpc5-71">
          <mxGeometry width="50" height="50" relative="1" as="geometry">
            <mxPoint x="400" y="370" as="sourcePoint" />
            <mxPoint x="450" y="320" as="targetPoint" />
          </mxGeometry>
        </mxCell>
        <mxCell id="UJMpHwvXwwzh0vuMlpc5-105" value="" style="ellipse;whiteSpace=wrap;html=1;aspect=fixed;" vertex="1" parent="1">
          <mxGeometry x="300" y="560" width="10" height="10" as="geometry" />
        </mxCell>
        <mxCell id="mkpMTUnrsjfbZvk3kkcX-8" value="" style="ellipse;whiteSpace=wrap;html=1;aspect=fixed;fillColor=#1A1A1A;" vertex="1" parent="1">
          <mxGeometry x="450" y="215" width="10" height="10" as="geometry" />
        </mxCell>
        <mxCell id="mkpMTUnrsjfbZvk3kkcX-10" value="" style="endArrow=none;html=1;rounded=0;exitX=0.5;exitY=0;exitDx=0;exitDy=0;entryX=0;entryY=0.5;entryDx=0;entryDy=0;entryPerimeter=0;strokeWidth=2;" edge="1" parent="1" source="mkpMTUnrsjfbZvk3kkcX-8" target="UJMpHwvXwwzh0vuMlpc5-69">
          <mxGeometry width="50" height="50" relative="1" as="geometry">
            <mxPoint x="400" y="330" as="sourcePoint" />
            <mxPoint x="455" y="170" as="targetPoint" />
            <Array as="points">
              <mxPoint x="455" y="170" />
            </Array>
          </mxGeometry>
        </mxCell>
        <mxCell id="mkpMTUnrsjfbZvk3kkcX-12" value="" style="endArrow=none;html=1;rounded=0;entryX=0.5;entryY=1;entryDx=0;entryDy=0;exitX=0;exitY=0.5;exitDx=0;exitDy=0;exitPerimeter=0;strokeWidth=2;" edge="1" parent="1" source="UJMpHwvXwwzh0vuMlpc5-71" target="mkpMTUnrsjfbZvk3kkcX-8">
          <mxGeometry width="50" height="50" relative="1" as="geometry">
            <mxPoint x="400" y="330" as="sourcePoint" />
            <mxPoint x="450" y="280" as="targetPoint" />
            <Array as="points">
              <mxPoint x="455" y="290" />
            </Array>
          </mxGeometry>
        </mxCell>
        <mxCell id="mkpMTUnrsjfbZvk3kkcX-13" value="" style="endArrow=none;html=1;rounded=0;entryX=0;entryY=0.5;entryDx=0;entryDy=0;exitX=0.833;exitY=0.5;exitDx=0;exitDy=0;exitPerimeter=0;strokeWidth=2;" edge="1" parent="1" source="UJMpHwvXwwzh0vuMlpc5-93" target="mkpMTUnrsjfbZvk3kkcX-8">
          <mxGeometry width="50" height="50" relative="1" as="geometry">
            <mxPoint x="400" y="330" as="sourcePoint" />
            <mxPoint x="450" y="280" as="targetPoint" />
          </mxGeometry>
        </mxCell>
        <mxCell id="mkpMTUnrsjfbZvk3kkcX-14" value="" style="ellipse;whiteSpace=wrap;html=1;aspect=fixed;fillColor=#1A1A1A;" vertex="1" parent="1">
          <mxGeometry x="320" y="250" width="10" height="10" as="geometry" />
        </mxCell>
        <mxCell id="mkpMTUnrsjfbZvk3kkcX-15" value="" style="endArrow=none;html=1;rounded=0;entryX=0;entryY=0.5;entryDx=0;entryDy=0;entryPerimeter=0;exitX=0.5;exitY=0;exitDx=0;exitDy=0;strokeWidth=2;" edge="1" parent="1" source="mkpMTUnrsjfbZvk3kkcX-14" target="UJMpHwvXwwzh0vuMlpc5-70">
          <mxGeometry width="50" height="50" relative="1" as="geometry">
            <mxPoint x="400" y="330" as="sourcePoint" />
            <mxPoint x="450" y="280" as="targetPoint" />
            <Array as="points">
              <mxPoint x="325" y="170" />
            </Array>
          </mxGeometry>
        </mxCell>
        <mxCell id="mkpMTUnrsjfbZvk3kkcX-17" value="" style="endArrow=none;html=1;rounded=0;entryX=0.5;entryY=1;entryDx=0;entryDy=0;exitX=0;exitY=0.5;exitDx=0;exitDy=0;exitPerimeter=0;strokeWidth=2;" edge="1" parent="1" source="UJMpHwvXwwzh0vuMlpc5-72" target="mkpMTUnrsjfbZvk3kkcX-14">
          <mxGeometry width="50" height="50" relative="1" as="geometry">
            <mxPoint x="375" y="315" as="sourcePoint" />
            <mxPoint x="425" y="265" as="targetPoint" />
            <Array as="points">
              <mxPoint x="325" y="290" />
            </Array>
          </mxGeometry>
        </mxCell>
        <mxCell id="mkpMTUnrsjfbZvk3kkcX-18" value="" style="endArrow=none;html=1;rounded=0;exitX=1;exitY=0.5;exitDx=0;exitDy=0;entryX=1.045;entryY=0.134;entryDx=0;entryDy=0;entryPerimeter=0;strokeWidth=2;" edge="1" parent="1" source="mkpMTUnrsjfbZvk3kkcX-14" target="UJMpHwvXwwzh0vuMlpc5-71">
          <mxGeometry width="50" height="50" relative="1" as="geometry">
            <mxPoint x="400" y="330" as="sourcePoint" />
            <mxPoint x="450" y="280" as="targetPoint" />
          </mxGeometry>
        </mxCell>
      </root>
    </mxGraphModel>
  </diagram>
</mxfile>
